<?xml version="1.0" encoding="UTF-8" standalone="no"?>
<!-- Created with Inkscape (http://www.inkscape.org/) -->

<svg
   width="200mm"
   height="200mm"
   viewBox="0 0 200 200"
   version="1.1"
   id="svg5"
   inkscape:version="1.1.2 (0a00cf5339, 2022-02-04)"
   sodipodi:docname="sota-chaser.svg"
   xmlns:inkscape="http://www.inkscape.org/namespaces/inkscape"
   xmlns:sodipodi="http://sodipodi.sourceforge.net/DTD/sodipodi-0.dtd"
   xmlns="http://www.w3.org/2000/svg"
   xmlns:svg="http://www.w3.org/2000/svg">
  <sodipodi:namedview
     id="namedview7"
     pagecolor="#ffffff"
     bordercolor="#666666"
     borderopacity="1.0"
     inkscape:pageshadow="2"
     inkscape:pageopacity="0.0"
     inkscape:pagecheckerboard="0"
     inkscape:document-units="mm"
     showgrid="false"
     inkscape:zoom="0.64675926"
     inkscape:cx="279.08375"
     inkscape:cy="427.51611"
     inkscape:window-width="1920"
     inkscape:window-height="1011"
     inkscape:window-x="0"
     inkscape:window-y="2160"
     inkscape:window-maximized="1"
     inkscape:current-layer="layer1"
     height="200mm" />
  <defs
     id="defs2" />
  <g
     inkscape:label="Layer 1"
     inkscape:groupmode="layer"
     id="layer1">
    <g
       id="g1881"
       transform="translate(-9.3961575,19.335607)">
      <path
         style="fill:#000000;stroke-width:0.264583"
         id="path197"
         d="m 44.262354,131.90249 c 2.029431,-2.74334 3.808352,-5.64699 5.551938,-8.57615 0.429431,-0.76043 0.860446,-1.51997 1.288301,-2.28129 1.642041,-2.92184 3.304886,-5.81717 5.129882,-8.63065 0.949428,-1.46368 3.112148,-4.62428 4.078287,-6.04406 2.940854,-4.31387 5.720292,-8.735818 8.202642,-13.330834 1.648237,-3.051014 2.123903,-4.123624 3.63334,-7.24435 2.686912,-5.529723 4.891106,-11.259323 6.325462,-17.237818 0.809377,-3.320066 1.216351,-6.716477 1.615189,-10.104951 0.05141,-0.422926 0.112609,-1.162741 0.253984,-1.60895 0.0286,-0.09027 0.09657,-0.162896 0.144859,-0.244345 -1.14246,0.659513 -2.365216,1.19625 -3.427386,1.978538 -0.12823,0.09444 0.08127,0.308308 0.109588,0.465026 0.05283,0.292341 0.08912,0.587434 0.133684,0.88115 0.395478,3.039801 0.910116,6.059411 1.636178,9.037807 0.744955,2.805173 1.483561,5.610886 2.199462,8.423738 0.478065,2.035498 0.992542,4.067561 1.710444,6.033082 0.672277,1.640178 1.831978,2.974856 3.010305,4.269245 1.478362,1.492867 3.039181,2.899656 4.57481,4.332647 1.127466,1.069295 2.216002,2.191687 3.519003,3.049657 0.224848,0.05658 0.443349,0.152233 0.674545,0.169732 1.558149,0.117952 3.442689,-0.772353 4.805822,-1.433213 3.851707,-1.951638 6.321177,-3.601765 9.097737,-6.702814 1.94201,-2.197957 3.36022,-4.760084 4.73343,-7.33176 1.8841,-3.643096 3.48444,-7.420734 5.238,-11.125753 1.46386,-3.118382 2.94091,-6.230398 4.36392,-9.367649 1.67858,-3.523941 3.13904,-7.140848 4.45721,-10.813058 1.28841,-3.653647 2.32448,-7.387286 3.47853,-11.083211 0.54979,-2.030253 1.32776,-3.984273 2.01402,-5.968605 0.32202,-0.695934 0.55156,-1.424866 0.79122,-2.150708 0.30705,-0.821703 0.53906,-1.671053 0.75704,-2.519797 0.0535,-0.155649 0.0922,-0.317169 0.1604,-0.466951 0.0716,-0.157199 0.2621,-0.473084 0.43287,-0.577262 0.0593,-0.03617 0.2646,-0.07405 0.20466,-0.03898 -3.33056,1.94869 -4.31615,1.032655 -3.26611,1.957096 0.45161,1.237869 0.71072,2.535404 1.03542,3.810167 0.39149,1.498179 0.90798,2.955221 1.54873,4.363961 0.77911,1.57303 1.61613,3.11726 2.43695,4.669033 0.7289,1.357341 1.46476,2.710905 2.22534,4.050781 1.03207,1.654106 1.95775,3.367387 2.82977,5.110033 1.09617,2.502257 2.15546,5.021045 3.20792,7.542077 1.1532,2.583736 2.44408,5.106546 3.89908,7.533008 1.70128,2.928538 3.17279,5.98588 4.55519,9.075761 1.4834,3.3826 2.84669,6.817281 4.14565,10.274488 1.5735,4.262554 2.97004,8.586655 4.38794,12.902618 1.32552,4.226834 2.58273,8.474684 3.85042,12.719144 0.93883,2.84896 1.71764,5.74485 2.55356,8.6243 0.57255,1.86822 1.13706,3.73309 1.75573,5.58693 0.58799,1.86677 1.33016,3.6773 2.0637,5.48974 0.4666,1.18834 0.90646,2.38711 1.30938,3.59853 0.38761,1.11774 0.72788,2.25574 0.99087,3.40961 0,0 3.46748,-1.87044 3.46748,-1.87044 v 0 c -0.28885,-1.15737 -0.65107,-2.29647 -1.02854,-3.42757 -0.40428,-1.22 -0.83013,-2.4313 -1.34965,-3.60782 -0.75507,-1.79408 -1.47806,-3.60272 -2.05158,-5.46473 -0.60836,-1.84846 -1.19693,-3.70029 -1.78858,-5.55387 -0.85374,-2.86907 -1.66971,-5.75012 -2.63195,-8.58566 -1.31228,-4.2275 -2.57677,-8.469848 -3.92232,-12.687102 -1.38362,-4.338429 -2.79984,-8.667655 -4.32259,-12.959511 -1.31927,-3.456853 -2.629,-6.922421 -4.16157,-10.291342 -1.39575,-3.100097 -2.80528,-6.20472 -4.51518,-9.147201 -1.41238,-2.430778 -2.78565,-4.890585 -3.87408,-7.487471 -1.06525,-2.524802 -2.1042,-5.060902 -3.20852,-7.568694 -0.8576,-1.759836 -1.74314,-3.500924 -2.77262,-5.168524 -0.75925,-1.336628 -1.52261,-2.670861 -2.24297,-4.029051 -0.82922,-1.536872 -1.64302,-3.08437 -2.40963,-4.653011 -0.61198,-1.39515 -1.15233,-2.819863 -1.52392,-4.300013 -0.32988,-1.335471 -0.58773,-2.696657 -1.05291,-3.993343 -1.43747,-2.015221 -4.10756,1.311124 -4.49367,2.855537 -0.24143,0.841322 -0.4551,1.691965 -0.78357,2.505255 -0.24881,0.712686 -0.47192,1.433504 -0.75556,2.133933 -0.6558,1.966714 -1.34799,3.921789 -1.89328,5.923907 -1.12106,3.685378 -2.11751,7.409926 -3.42381,11.037623 -1.33911,3.676673 -2.84279,7.284458 -4.53246,10.814952 -1.42087,3.12298 -2.88181,6.227379 -4.32021,9.342302 -1.73603,3.717314 -3.34678,7.495286 -5.27747,11.119416 -1.41156,2.549046 -2.85254,5.096426 -4.82051,7.269909 -1.16326,1.25563 -2.36536,2.436757 -3.77102,3.424854 -0.3389,0.238225 -1.413471,0.861377 -1.04372,0.674595 0.77258,-0.390274 1.50364,-0.857811 2.25546,-1.286717 -1.51725,0.795256 -3.437852,1.684544 -5.186195,1.544188 -1.327782,-0.790633 -2.412865,-1.904196 -3.538442,-2.949829 -1.528231,-1.423326 -3.074614,-2.827263 -4.53921,-4.31695 -1.142431,-1.258207 -2.277115,-2.549675 -2.927281,-4.144242 -0.720834,-1.945624 -1.262412,-3.949793 -1.752878,-5.964703 -0.719119,-2.810116 -1.481225,-5.6079 -2.209808,-8.415272 -0.749887,-2.968426 -1.269796,-5.98429 -1.551493,-9.034634 -0.03598,-0.311436 -0.05982,-0.624512 -0.10795,-0.934302 -0.03153,-0.202938 0.06652,-0.659212 -0.130744,-0.602083 -3.742981,1.083982 -3.642802,0.987872 -3.848441,3.577344 -0.338857,3.354641 -0.747538,6.710042 -1.506096,9.999588 -1.393007,5.91679 -3.521945,11.598788 -6.162606,17.075462 -1.53589,3.160088 -1.966851,4.139033 -3.647183,7.227086 -2.498246,4.591182 -5.296199,9.006894 -8.248044,13.318194 -3.782899,5.53661 -7.429548,11.15716 -10.648326,17.04599 -1.788099,2.96822 -3.630911,5.91314 -5.804058,8.61948 0,0 3.628789,-1.54027 3.628789,-1.54027 z" />
      <path
         style="fill:#000000;stroke-width:0.264583"
         id="path356"
         d="m 124.53933,48.684394 c 0.76241,0.989099 1.39413,2.066287 2.06955,3.114444 0.12317,0.166363 0.32441,0.469109 0.50188,0.608878 1.14932,0.905153 3.65335,-1.259673 4.55717,-2.302925 0.47267,-0.643202 0.87391,-1.372944 1.60694,-1.739977 -5.95136,3.002264 -3.25944,1.847249 -1.7664,1.361832 1.22961,-0.775155 3.08886,-1.428412 4.22828,-2.615198 0.27297,-0.28431 0.47192,-0.621347 0.72527,-0.922004 0.30156,-0.33968 0.36878,-0.795464 0.56621,-1.187767 0.0277,-0.05507 0.0669,-0.103606 0.10029,-0.155408 -1.08503,0.667432 -2.17005,1.334865 -3.25507,2.002297 0.0462,-0.353184 0.91063,1.127194 0.95005,1.195597 0.36468,0.588431 0.76694,1.147956 1.19408,1.691807 0.4045,0.528693 0.86154,0.663874 1.49124,0.48456 0.52422,-0.21204 0.99353,-0.527259 1.52354,-0.727993 0.22441,-0.08282 0.46052,-0.107688 0.69613,-0.134567 0,0 3.19102,-2.354609 3.19102,-2.354609 v 0 c -0.24939,0.0088 -0.49999,0.01355 -0.74611,0.06006 -0.55946,0.137327 -1.07002,0.39474 -1.53964,0.728329 -0.56119,0.219382 -0.75145,0.452205 -1.21215,-0.08808 -0.4197,-0.525473 -0.82588,-1.057995 -1.18053,-1.631193 -0.34851,-0.611161 -0.71675,-1.232556 -1.24939,-1.702647 -5.15043,3.115778 -2.46969,0.964819 -4.16568,3.371228 -1.15906,1.499518 -3.66001,2.747317 1.79178,-0.473231 -1.65259,0.914577 -3.95781,0.165743 -5.03121,2.533785 -0.62931,0.507206 -1.02243,1.219697 -1.56051,1.815536 -1.22755,1.099262 -0.31851,0.241414 2.81693,-1.434967 0.11463,-0.06129 -0.24178,0.202398 -0.36033,0.149092 -0.16173,-0.07272 -0.40096,-0.417536 -0.48112,-0.51839 -0.69776,-1.031324 -1.33753,-2.099752 -2.0471,-3.122821 0,0 -3.41512,1.994334 -3.41512,1.994334 z" />
    </g>
    <circle
       id="path1756"
       style="fill:#000000;stroke:#000000;stroke-width:0.264583"
       cx="100"
       cy="100"
       r="0.05449051" />
  </g>
</svg>
